<svg width="994" height="1372" viewBox="0 0 994 1372" fill="none" xmlns="http://www.w3.org/2000/svg">
<g filter="url(#filter0_f_2044_9311)">
<path d="M583.638 129.097C763.474 170.512 875.686 349.872 834.271 529.708C825.142 569.348 809.31 605.7 788.249 637.848C858.782 724.694 889.99 841.986 862.937 959.46C816.337 1161.81 614.526 1288.07 412.179 1241.47C209.832 1194.87 83.5735 993.055 130.173 790.708C145.263 725.183 176.628 667.637 219.018 621.355C178.404 550.801 163.316 465.32 183.026 379.73C224.442 199.894 403.802 87.6818 583.638 129.097Z" fill="url(#paint0_linear_2044_9311)" fill-opacity="0.13"/>
</g>
<defs>
<filter id="filter0_f_2044_9311" x="0" y="0" width="993.109" height="1371.64" filterUnits="userSpaceOnUse" color-interpolation-filters="sRGB">
<feFlood flood-opacity="0" result="BackgroundImageFix"/>
<feBlend mode="normal" in="SourceGraphic" in2="BackgroundImageFix" result="shape"/>
<feGaussianBlur stdDeviation="60.25" result="effect1_foregroundBlur_2044_9311"/>
</filter>
<linearGradient id="paint0_linear_2044_9311" x1="583.636" y1="129.097" x2="373.667" y2="1040.84" gradientUnits="userSpaceOnUse">
<stop stop-color="#006ACC" stop-opacity="0.66"/>
<stop offset="1" stop-color="#660A66" stop-opacity="0.55"/>
</linearGradient>
</defs>
</svg>
