<svg width="807" height="1126" viewBox="0 0 807 1126" fill="none" xmlns="http://www.w3.org/2000/svg">
<g filter="url(#filter0_f_2044_9308)">
<path d="M749.469 -49.566C912.922 36.1031 975.979 238.057 890.31 401.511C871.428 437.538 846.895 468.686 818.372 494.44C864.575 596.336 865.017 717.709 809.055 824.483C712.663 1008.4 485.429 1079.35 301.515 982.954C117.601 886.561 46.6513 659.328 143.044 475.414C174.258 415.859 219.19 368.149 271.93 334.132C250.536 255.583 257.619 169.069 298.392 91.2754C384.061 -72.1782 586.015 -135.235 749.469 -49.566Z" fill="url(#paint0_linear_2044_9308)" fill-opacity="0.19"/>
</g>
<defs>
<filter id="filter0_f_2044_9308" x="0" y="-187.82" width="1028.56" height="1313.82" filterUnits="userSpaceOnUse" color-interpolation-filters="sRGB">
<feFlood flood-opacity="0" result="BackgroundImageFix"/>
<feBlend mode="normal" in="SourceGraphic" in2="BackgroundImageFix" result="shape"/>
<feGaussianBlur stdDeviation="50" result="effect1_foregroundBlur_2044_9308"/>
</filter>
<linearGradient id="paint0_linear_2044_9308" x1="749.469" y1="-49.566" x2="315.14" y2="779.118" gradientUnits="userSpaceOnUse">
<stop stop-color="#006ACC" stop-opacity="0.66"/>
<stop offset="1" stop-color="#660A66" stop-opacity="0.55"/>
</linearGradient>
</defs>
</svg>
