<svg width="220" height="224" viewBox="0 0 220 224" fill="none" xmlns="http://www.w3.org/2000/svg">
<path d="M105.964 102.079C120.747 85.9323 145.008 95.1936 153.424 112.472C158.246 122.379 157.436 134.922 147.722 146.823C141.918 153.143 135.332 158.013 127.704 161.235C96.5936 174.375 53.9614 162.824 33.1817 136.991C10.7553 107.763 23.9075 65.5618 50.2228 43.6073C94.3193 2.70473 172.101 20.8448 192.72 77.8293C169.741 53.1919 134.125 42.8585 101.164 49.2158C72.7136 53.736 44.0704 82.3226 56.4395 112.477C65.0217 138.779 106.876 149.781 122.904 124.75C130.29 112.008 118.35 102.074 105.964 102.079Z" fill="url(#paint0_linear_1720_6922)"/>
<mask id="mask0_1720_6922" style="mask-type:luminance" maskUnits="userSpaceOnUse" x="21" y="21" width="172" height="146">
<path d="M105.964 102.079C129.228 76.6764 174.381 114.174 147.722 146.823C118.242 178.911 59.0571 169.154 33.1817 136.991C10.7553 107.763 23.9075 65.5618 50.2228 43.6073C94.3193 2.70473 172.101 20.8448 192.72 77.8293C192.521 77.964 192.307 77.4037 192.108 77.5438C169.569 52.6262 133.674 43.1278 101.164 49.2158C72.7136 53.736 44.0704 82.3226 56.4395 112.477C65.0271 138.779 106.871 149.781 122.904 124.75C130.29 112.008 118.355 102.074 105.964 102.079Z" fill="white"/>
</mask>
<g mask="url(#mask0_1720_6922)">
<path d="M16.9987 97.6233C17.3903 93.782 25.9028 47.8797 32.0498 44.1838C96.1805 5.65712 44.7407 67.011 44.6281 70.2813C43.5982 100.522 53.205 131.926 84.3263 138.138C115.689 144.393 119.068 116.884 125.011 116.124C125.097 141.57 104.301 162.743 78.6674 162.673C42.0749 162.425 11.7153 119.211 16.9933 97.6287L16.9987 97.6233Z" fill="url(#paint1_linear_1720_6922)"/>
<path d="M17.0906 96.6751C17.4821 92.8338 25.9946 46.9314 32.1417 43.2356C96.2723 4.70887 44.8326 66.0628 44.72 69.3331C43.6901 99.5736 53.2969 130.978 84.4182 137.19C115.781 143.445 118.715 116.044 124.653 115.284C126.058 140.541 103.83 161.838 78.7592 161.72C42.1614 161.472 11.8071 118.258 17.0852 96.6751H17.0906Z" fill="url(#paint2_linear_1720_6922)"/>
</g>
<mask id="mask1_1720_6922" style="mask-type:luminance" maskUnits="userSpaceOnUse" x="21" y="21" width="172" height="146">
<path d="M106.109 102.079C113.281 92.9952 125.929 91.7615 135.814 96.4433C156.299 104.067 162.376 129.911 147.867 146.828C127.801 170.092 92.7264 169.682 65.923 160.028C-21.3582 127.363 35.5473 14.1047 113.399 21.5449C149.659 23.2905 179.337 43.8173 192.865 77.8237C192.967 78.578 191.819 77.4789 191.588 77.1288C169.253 52.3135 133.487 43.2408 101.314 49.2102C49.7831 56.9738 31.9857 125.59 89.7011 138.235C119.551 144.635 143.839 106.319 106.115 102.073L106.109 102.079Z" fill="white"/>
</mask>
<g mask="url(#mask1_1720_6922)">
<path d="M36.127 81.4763C36.127 50.4976 63.3058 20.9467 94.1321 20.0146C180.534 17.407 186.294 67.517 196.207 81.611C196.877 82.5646 135.772 53.0891 136.405 54.0642C69.4367 35.4231 21.2583 109.459 91.9704 137.572C61.1281 137.572 36.127 112.46 36.127 81.4817V81.4763Z" fill="url(#paint3_linear_1720_6922)"/>
<path d="M36.9805 81.6326C36.9805 50.6539 64.1593 21.1029 94.9856 20.1709C181.387 17.5633 187.148 67.6733 197.06 81.7672C197.731 82.7208 136.625 53.2453 137.258 54.2205C70.2902 35.5794 22.1118 109.616 92.8239 137.728C61.9816 137.728 36.9805 112.617 36.9805 81.6379V81.6326Z" fill="url(#paint4_linear_1720_6922)"/>
<path d="M53.082 95.7912C55.6942 64.931 85.0669 47.8524 113.394 46.4354C178.002 43.941 190.408 83.0226 199.473 95.9097C200.085 96.7825 144.209 69.8284 144.788 70.7173C90.7741 54.6246 35.5099 115.149 101.185 138.585C72.4135 139.679 53.0874 122.072 53.0874 95.7858L53.082 95.7912Z" fill="url(#paint5_linear_1720_6922)"/>
</g>
<path d="M136.549 96.4757C132.456 94.6331 128.267 93.6633 124.003 93.798C177.282 102.855 159.984 167.123 99.5059 166.261C117.411 166.374 136.726 161.348 148.596 146.855C163.1 129.943 157.034 104.099 136.544 96.4757H136.549Z" fill="url(#paint6_linear_1720_6922)"/>
<path d="M113.586 121.549C98.8028 137.696 74.5419 128.435 66.1259 111.157C61.3038 101.249 62.1138 88.7066 71.8278 76.8054C77.6315 70.4858 84.2183 65.6154 91.8458 62.3936C122.956 49.2533 165.589 60.8043 186.368 86.6378C208.795 115.866 195.642 158.067 169.327 180.021C125.231 220.924 47.4489 202.784 26.8301 145.799C49.809 170.436 85.4252 180.77 118.386 174.412C146.836 169.892 175.48 141.306 163.11 111.151C154.528 84.8491 112.674 73.8477 96.6465 98.8784C89.2604 111.62 101.2 121.555 113.586 121.549Z" fill="url(#paint7_linear_1720_6922)"/>
<mask id="mask2_1720_6922" style="mask-type:luminance" maskUnits="userSpaceOnUse" x="26" y="57" width="172" height="146">
<path d="M113.586 121.549C90.3225 146.952 45.1692 109.454 71.8278 76.8053C101.308 44.7168 160.493 54.4737 186.368 86.6376C208.795 115.865 195.642 158.066 169.327 180.021C125.231 220.923 47.4489 202.783 26.8301 145.799C27.0285 145.664 27.2431 146.224 27.4416 146.084C49.9806 171.002 85.8758 180.5 118.386 174.412C146.836 169.892 175.48 141.306 163.11 111.151C154.523 84.8489 112.679 73.8475 96.6465 98.8782C89.2604 111.62 101.195 121.555 113.586 121.549Z" fill="white"/>
</mask>
<g mask="url(#mask2_1720_6922)">
<path d="M202.552 125.999C202.16 129.841 193.648 175.743 187.501 179.439C123.37 217.965 174.81 156.612 174.923 153.341C175.952 123.101 166.346 91.6964 135.224 85.4845C104.103 79.2726 100.483 106.739 94.5393 107.498C94.4535 82.0526 115.249 60.8794 140.883 60.9494C177.476 61.1972 207.835 104.411 202.557 125.994L202.552 125.999Z" fill="url(#paint8_linear_1720_6922)"/>
<path d="M202.461 126.953C202.07 130.794 193.557 176.696 187.41 180.392C123.28 218.919 174.719 157.565 174.832 154.295C175.862 124.054 166.255 92.6498 135.134 86.4379C103.771 80.1829 100.837 107.584 94.8992 108.344C93.4938 83.0868 115.722 61.7897 140.793 61.9082C177.39 62.156 207.745 105.37 202.467 126.953H202.461Z" fill="url(#paint9_linear_1720_6922)"/>
</g>
<mask id="mask3_1720_6922" style="mask-type:luminance" maskUnits="userSpaceOnUse" x="26" y="57" width="172" height="146">
<path d="M113.442 121.549C106.27 130.633 93.6221 131.867 83.7364 127.185C63.2517 119.561 57.1744 93.7172 71.6838 76.8001C91.7501 53.5365 126.825 53.946 153.628 63.6005C240.909 96.2547 184.004 209.513 106.152 202.072C69.8922 200.327 40.2138 179.8 26.6861 145.794C26.5842 145.039 27.732 146.138 27.9627 146.489C50.2979 171.304 86.0644 180.377 118.237 174.407C169.768 166.644 188.118 97.7471 130.402 85.1024C100.552 78.702 75.712 117.293 113.436 121.544L113.442 121.549Z" fill="white"/>
</mask>
<g mask="url(#mask3_1720_6922)">
<path d="M183.423 142.152C183.423 173.13 156.245 202.681 125.418 203.613C39.0167 206.221 33.2558 156.111 23.3434 142.017C22.6729 141.063 83.7783 170.539 83.1454 169.564C150.114 188.205 198.292 114.169 127.58 86.0562C158.422 86.0562 183.423 111.168 183.423 142.146V142.152Z" fill="url(#paint10_linear_1720_6922)"/>
<path d="M182.572 141.996C182.572 172.974 155.393 202.525 124.567 203.457C38.1651 206.065 32.4043 155.955 22.4918 141.861C21.8213 140.907 82.9268 170.383 82.2938 169.408C149.262 188.049 197.44 114.012 126.728 85.8999C157.571 85.8999 182.572 111.011 182.572 141.99V141.996Z" fill="url(#paint11_linear_1720_6922)"/>
<path d="M166.469 127.837C163.856 158.697 134.484 175.776 106.157 177.193C41.5489 179.687 29.1422 140.606 20.0772 127.718C19.4658 126.846 75.3414 153.8 74.7621 152.911C128.777 169.004 184.041 108.479 118.365 85.0433C147.137 83.9497 166.463 101.556 166.463 127.842L166.469 127.837Z" fill="url(#paint12_linear_1720_6922)"/>
</g>
<path d="M83.0006 127.153C87.0933 128.995 91.2825 129.965 95.5468 129.83C42.2672 120.774 59.5658 56.505 120.044 57.367C102.139 57.2539 82.8236 62.2805 70.9533 76.7731C56.4493 93.6848 62.5159 119.529 83.006 127.153H83.0006Z" fill="url(#paint13_linear_1720_6922)"/>
<defs>
<linearGradient id="paint0_linear_1720_6922" x1="107.225" y1="21.4266" x2="107.225" y2="166.692" gradientUnits="userSpaceOnUse">
<stop stop-color="#2D6BB4"/>
<stop offset="0.28" stop-color="#2F68B1"/>
<stop offset="0.49" stop-color="#355FA7"/>
<stop offset="0.68" stop-color="#415097"/>
<stop offset="0.85" stop-color="#513B81"/>
<stop offset="1" stop-color="#652266"/>
</linearGradient>
<linearGradient id="paint1_linear_1720_6922" x1="16.3979" y1="97.0954" x2="125.011" y2="97.0954" gradientUnits="userSpaceOnUse">
<stop stop-color="#3B74BA"/>
<stop offset="0.25" stop-color="#3B6FB7"/>
<stop offset="0.53" stop-color="#3B62AE"/>
<stop offset="0.82" stop-color="#3D4BA1"/>
<stop offset="1" stop-color="#3E3B97"/>
</linearGradient>
<linearGradient id="paint2_linear_1720_6922" x1="16.4898" y1="96.1471" x2="124.722" y2="96.1471" gradientUnits="userSpaceOnUse">
<stop stop-color="#3B74BA"/>
<stop offset="1" stop-color="#652266"/>
</linearGradient>
<linearGradient id="paint3_linear_1720_6922" x1="36.127" y1="78.7448" x2="196.212" y2="78.7448" gradientUnits="userSpaceOnUse">
<stop stop-color="#3B74BA"/>
<stop offset="0.34" stop-color="#3B71B8"/>
<stop offset="0.57" stop-color="#3B68B2"/>
<stop offset="0.76" stop-color="#3C58A9"/>
<stop offset="0.94" stop-color="#3D439C"/>
<stop offset="1" stop-color="#3E3B97"/>
</linearGradient>
<linearGradient id="paint4_linear_1720_6922" x1="36.9751" y1="78.8957" x2="197.06" y2="78.8957" gradientUnits="userSpaceOnUse">
<stop stop-color="#3E3B97"/>
<stop offset="0.06" stop-color="#3D439C"/>
<stop offset="0.24" stop-color="#3C58A9"/>
<stop offset="0.43" stop-color="#3B68B2"/>
<stop offset="0.66" stop-color="#3B71B8"/>
<stop offset="1" stop-color="#3B74BA"/>
</linearGradient>
<linearGradient id="paint5_linear_1720_6922" x1="126.278" y1="46.3223" x2="126.278" y2="138.639" gradientUnits="userSpaceOnUse">
<stop stop-color="#3B74BA"/>
<stop offset="0.34" stop-color="#3B71B8"/>
<stop offset="0.57" stop-color="#3B68B2"/>
<stop offset="0.76" stop-color="#3C58A9"/>
<stop offset="0.94" stop-color="#3D439C"/>
<stop offset="1" stop-color="#3E3B97"/>
</linearGradient>
<linearGradient id="paint6_linear_1720_6922" x1="153.628" y1="111.965" x2="89.4955" y2="148.83" gradientUnits="userSpaceOnUse">
<stop stop-color="#3B74BA"/>
<stop offset="1" stop-color="#652266"/>
</linearGradient>
<linearGradient id="paint7_linear_1720_6922" x1="112.32" y1="202.196" x2="112.32" y2="56.9306" gradientUnits="userSpaceOnUse">
<stop stop-color="#2D6BB4"/>
<stop offset="0.28" stop-color="#2F68B1"/>
<stop offset="0.49" stop-color="#355FA7"/>
<stop offset="0.68" stop-color="#415097"/>
<stop offset="0.85" stop-color="#513B81"/>
<stop offset="1" stop-color="#652266"/>
</linearGradient>
<linearGradient id="paint8_linear_1720_6922" x1="203.147" y1="126.527" x2="94.534" y2="126.527" gradientUnits="userSpaceOnUse">
<stop stop-color="#3B74BA"/>
<stop offset="0.25" stop-color="#3B6FB7"/>
<stop offset="0.53" stop-color="#3B62AE"/>
<stop offset="0.82" stop-color="#3D4BA1"/>
<stop offset="1" stop-color="#3E3B97"/>
</linearGradient>
<linearGradient id="paint9_linear_1720_6922" x1="203.057" y1="127.475" x2="94.8241" y2="127.475" gradientUnits="userSpaceOnUse">
<stop stop-color="#3B74BA"/>
<stop offset="1" stop-color="#652266"/>
</linearGradient>
<linearGradient id="paint10_linear_1720_6922" x1="183.418" y1="144.883" x2="23.3326" y2="144.883" gradientUnits="userSpaceOnUse">
<stop stop-color="#3B74BA"/>
<stop offset="0.34" stop-color="#3B71B8"/>
<stop offset="0.57" stop-color="#3B68B2"/>
<stop offset="0.76" stop-color="#3C58A9"/>
<stop offset="0.94" stop-color="#3D439C"/>
<stop offset="1" stop-color="#3E3B97"/>
</linearGradient>
<linearGradient id="paint11_linear_1720_6922" x1="182.572" y1="144.727" x2="22.4864" y2="144.727" gradientUnits="userSpaceOnUse">
<stop stop-color="#3E3B97"/>
<stop offset="0.06" stop-color="#3D439C"/>
<stop offset="0.24" stop-color="#3C58A9"/>
<stop offset="0.43" stop-color="#3B68B2"/>
<stop offset="0.66" stop-color="#3B71B8"/>
<stop offset="1" stop-color="#3B74BA"/>
</linearGradient>
<linearGradient id="paint12_linear_1720_6922" x1="93.2675" y1="177.301" x2="93.2675" y2="84.9895" gradientUnits="userSpaceOnUse">
<stop stop-color="#3B74BA"/>
<stop offset="0.34" stop-color="#3B71B8"/>
<stop offset="0.57" stop-color="#3B68B2"/>
<stop offset="0.76" stop-color="#3C58A9"/>
<stop offset="0.94" stop-color="#3D439C"/>
<stop offset="1" stop-color="#3E3B97"/>
</linearGradient>
<linearGradient id="paint13_linear_1720_6922" x1="65.922" y1="111.658" x2="130.054" y2="74.7929" gradientUnits="userSpaceOnUse">
<stop stop-color="#3B74BA"/>
<stop offset="1" stop-color="#652266"/>
</linearGradient>
</defs>
</svg>
