<svg width="405" height="397" viewBox="0 0 405 397" fill="none" xmlns="http://www.w3.org/2000/svg">
<g opacity="0.25">
<path d="M344.318 212.529C354.116 141.543 280.107 99.4142 219 114.051C183.967 122.454 154.062 150.588 144.371 199.918C140.573 227.747 142.063 254.543 149.879 280.543C181.761 386.592 299.913 470.446 408.4 469.301C528.877 465.264 607.719 344.22 608.059 231.975C618.991 35.3298 410.816 -123.762 224.189 -57.4264C334.256 -50.5189 434.686 18.1135 487.521 114.739C535.562 196.129 523.377 328.057 421.573 359.47C337.385 392.453 222.241 309.425 251.821 216.815C268.492 171.627 318.461 181.178 344.318 212.529Z" fill="url(#paint0_linear_1720_6936)"/>
<mask id="mask0_1720_6936" style="mask-type:luminance" maskUnits="userSpaceOnUse" x="142" y="-73" width="467" height="543">
<path d="M344.318 212.529C359.72 100.835 170.935 64.5634 144.371 199.918C125.112 341.247 273.321 470.717 408.4 469.301C528.877 465.264 607.719 344.22 608.059 231.975C618.991 35.3298 410.816 -123.762 224.189 -57.4264C224.264 -56.6441 226.124 -57.2665 226.185 -56.473C336.04 -51.2611 434.948 19.8138 487.521 114.739C535.562 196.129 523.377 328.057 421.573 359.47C337.373 392.44 222.252 309.439 251.821 216.815C268.492 171.627 318.45 181.165 344.318 212.529Z" fill="white"/>
</mask>
<g mask="url(#mask0_1720_6936)">
<path d="M541.382 428.38C550.242 419.4 648.099 302.399 644.57 279.158C607.668 36.7609 560.553 294.519 552.55 301.605C478.518 367.101 379.335 408.103 298.678 342.273C217.408 275.922 279.651 210.161 269.151 193.543C204.868 246.244 194.967 342.899 248.689 407.617C325.75 499.694 498.033 486.645 541.38 428.405L541.382 428.38Z" fill="url(#paint1_linear_1720_6936)"/>
<path d="M543.577 426.175C552.437 417.195 650.295 300.194 646.765 276.953C609.863 34.5556 562.748 292.313 554.745 299.399C480.713 364.896 381.531 405.898 300.873 340.068C219.603 273.717 282.505 209.307 272.015 192.702C205.451 241.672 198.23 342.208 250.898 405.401C327.97 497.491 500.242 484.429 543.589 426.188L543.577 426.175Z" fill="url(#paint2_linear_1720_6936)"/>
</g>
<mask id="mask1_1720_6936" style="mask-type:luminance" maskUnits="userSpaceOnUse" x="141" y="-73" width="467" height="543">
<path d="M344.014 212.163C351.918 175.125 328.606 140.555 296.161 125.278C234.166 89.2978 156.364 127.667 144.054 199.563C127.363 298.719 201.66 386.619 281.97 434.364C546.58 587.286 713.036 207.754 531.672 26.234C451.532 -61.887 337.827 -94.2958 223.898 -57.8038C221.785 -56.4931 226.952 -55.8742 228.316 -56.0189C337.487 -51.1098 435.054 20.5245 487.22 114.348C575.302 260.886 439.617 448.619 287.203 328.874C208.726 266.653 254.521 125.51 344.017 212.138L344.014 212.163Z" fill="white"/>
</mask>
<g mask="url(#mask1_1720_6936)">
<path d="M542.101 346.397C620.144 281.972 637.817 151.743 575.773 71.8023C401.862 -152.249 263.589 -62.6139 207.377 -58.3855C203.574 -58.0989 405.471 35.2216 401.692 35.648C588.541 166.335 502.663 442.216 284.133 321.752C348.558 399.795 464.044 410.834 542.087 346.408L542.101 346.397Z" fill="url(#paint3_linear_1720_6936)"/>
<path d="M539.921 344.563C617.964 280.138 635.637 149.909 573.594 69.9683C399.682 -154.083 261.409 -64.4479 205.197 -60.2194C201.394 -59.9328 403.291 33.3876 399.512 33.814C586.361 164.501 500.483 440.382 281.953 319.918C346.379 397.961 461.865 409 539.908 344.574L539.921 344.563Z" fill="url(#paint4_linear_1720_6936)"/>
<path d="M470.623 333.266C542.91 262.477 524.58 152.635 468.979 78.0111C340.306 -90.6593 215.935 -40.7761 164.533 -36.9129C161.057 -36.6451 345.678 48.6857 342.228 49.0686C495.598 152.278 458.562 417.987 262.334 300.543C319.679 375.621 404.404 387.907 470.625 333.241L470.623 333.266Z" fill="url(#paint5_linear_1720_6936)"/>
</g>
<path d="M294.544 123.488C307.735 130.012 318.929 138.596 327.497 149.666C193.388 33.6837 67.6138 211.113 196.115 362.352C158.43 317.282 130.746 257.953 142.461 197.777C154.769 125.906 232.549 87.5087 294.555 123.502L294.544 123.488Z" fill="url(#paint6_linear_1720_6936)"/>
</g>
<defs>
<linearGradient id="paint0_linear_1720_6936" x1="544.868" y1="41.6093" x2="178.908" y2="343.714" gradientUnits="userSpaceOnUse">
<stop stop-color="#2D6BB4"/>
<stop offset="0.28" stop-color="#2F68B1"/>
<stop offset="0.49" stop-color="#355FA7"/>
<stop offset="0.68" stop-color="#415097"/>
<stop offset="0.85" stop-color="#513B81"/>
<stop offset="1" stop-color="#652266"/>
</linearGradient>
<linearGradient id="paint1_linear_1720_6936" x1="543.967" y1="428.802" x2="317.089" y2="153.969" gradientUnits="userSpaceOnUse">
<stop stop-color="#3B74BA"/>
<stop offset="0.25" stop-color="#3B6FB7"/>
<stop offset="0.53" stop-color="#3B62AE"/>
<stop offset="0.82" stop-color="#3D4BA1"/>
<stop offset="1" stop-color="#3E3B97"/>
</linearGradient>
<linearGradient id="paint2_linear_1720_6936" x1="546.162" y1="426.597" x2="320.08" y2="152.727" gradientUnits="userSpaceOnUse">
<stop stop-color="#3B74BA"/>
<stop offset="1" stop-color="#652266"/>
</linearGradient>
<linearGradient id="paint3_linear_1720_6936" x1="548.982" y1="340.716" x2="214.587" y2="-64.3598" gradientUnits="userSpaceOnUse">
<stop stop-color="#3B74BA"/>
<stop offset="0.34" stop-color="#3B71B8"/>
<stop offset="0.57" stop-color="#3B68B2"/>
<stop offset="0.76" stop-color="#3C58A9"/>
<stop offset="0.94" stop-color="#3D439C"/>
<stop offset="1" stop-color="#3E3B97"/>
</linearGradient>
<linearGradient id="paint4_linear_1720_6936" x1="546.827" y1="338.885" x2="212.432" y2="-66.1914" gradientUnits="userSpaceOnUse">
<stop stop-color="#3E3B97"/>
<stop offset="0.06" stop-color="#3D439C"/>
<stop offset="0.24" stop-color="#3C58A9"/>
<stop offset="0.43" stop-color="#3B68B2"/>
<stop offset="0.66" stop-color="#3B71B8"/>
<stop offset="1" stop-color="#3B74BA"/>
</linearGradient>
<linearGradient id="paint5_linear_1720_6936" x1="442.351" y1="45.1743" x2="209.784" y2="237.162" gradientUnits="userSpaceOnUse">
<stop stop-color="#3B74BA"/>
<stop offset="0.34" stop-color="#3B71B8"/>
<stop offset="0.57" stop-color="#3B68B2"/>
<stop offset="0.76" stop-color="#3C58A9"/>
<stop offset="0.94" stop-color="#3D439C"/>
<stop offset="1" stop-color="#3E3B97"/>
</linearGradient>
<linearGradient id="paint6_linear_1720_6936" x1="219.848" y1="112.486" x2="260.028" y2="351.584" gradientUnits="userSpaceOnUse">
<stop stop-color="#3B74BA"/>
<stop offset="1" stop-color="#652266"/>
</linearGradient>
</defs>
</svg>
