<svg width="83" height="86" viewBox="0 0 83 86" fill="none" xmlns="http://www.w3.org/2000/svg">
<path d="M75.625 0H6.875C5.05164 0 3.30295 0.724328 2.01364 2.01364C0.724328 3.30295 0 5.05164 0 6.875V30.9375C0 53.5906 10.9656 67.3191 20.1652 74.8473C30.0738 82.9512 39.9309 85.7012 40.3605 85.8172C40.9514 85.9779 41.5744 85.9779 42.1652 85.8172C42.5949 85.7012 52.4391 82.9512 62.3605 74.8473C71.5344 67.3191 82.5 53.5906 82.5 30.9375V6.875C82.5 5.05164 81.7757 3.30295 80.4864 2.01364C79.197 0.724328 77.4484 0 75.625 0ZM60.8781 29.932L36.8156 53.9945C36.4964 54.3141 36.1173 54.5677 35.7 54.7407C35.2826 54.9137 34.8353 55.0027 34.3836 55.0027C33.9319 55.0027 33.4845 54.9137 33.0672 54.7407C32.6499 54.5677 32.2708 54.3141 31.9516 53.9945L21.6391 43.682C20.994 43.037 20.6317 42.1622 20.6317 41.25C20.6317 40.3378 20.994 39.463 21.6391 38.818C22.2841 38.173 23.1589 37.8106 24.0711 37.8106C24.9833 37.8106 25.8581 38.173 26.5031 38.818L34.375 46.7027L56.0055 25.068C56.3248 24.7486 56.704 24.4952 57.1213 24.3224C57.5386 24.1495 57.9858 24.0606 58.4375 24.0606C58.8892 24.0606 59.3364 24.1495 59.7537 24.3224C60.171 24.4952 60.5502 24.7486 60.8695 25.068C61.1889 25.3873 61.4423 25.7665 61.6151 26.1838C61.7879 26.6011 61.8769 27.0483 61.8769 27.5C61.8769 27.9517 61.7879 28.3989 61.6151 28.8162C61.4423 29.2335 61.1889 29.6127 60.8695 29.932H60.8781Z" fill="url(#paint0_linear_2044_9330)"/>
<defs>
<linearGradient id="paint0_linear_2044_9330" x1="41.25" y1="7.08101e-07" x2="66" y2="111.345" gradientUnits="userSpaceOnUse">
<stop stop-color="#88C6FF"/>
<stop offset="1" stop-color="#217FD7"/>
</linearGradient>
</defs>
</svg>
