<svg width="97" height="97" viewBox="0 0 97 97" fill="none" xmlns="http://www.w3.org/2000/svg">
<path d="M37.8125 37.8125H58.4375V58.4375H37.8125V37.8125ZM96.25 58.4375C96.25 59.3492 95.8878 60.2235 95.2432 60.8682C94.5985 61.5128 93.7242 61.875 92.8125 61.875H85.9375V79.0625C85.9375 80.8859 85.2132 82.6345 83.9239 83.9239C82.6345 85.2132 80.8859 85.9375 79.0625 85.9375H61.875V92.8125C61.875 93.7242 61.5128 94.5985 60.8682 95.2432C60.2235 95.8878 59.3492 96.25 58.4375 96.25C57.5258 96.25 56.6515 95.8878 56.0068 95.2432C55.3622 94.5985 55 93.7242 55 92.8125V85.9375H41.25V92.8125C41.25 93.7242 40.8878 94.5985 40.2432 95.2432C39.5985 95.8878 38.7242 96.25 37.8125 96.25C36.9008 96.25 36.0265 95.8878 35.3818 95.2432C34.7372 94.5985 34.375 93.7242 34.375 92.8125V85.9375H17.1875C15.3641 85.9375 13.6155 85.2132 12.3261 83.9239C11.0368 82.6345 10.3125 80.8859 10.3125 79.0625V61.875H3.4375C2.52582 61.875 1.65148 61.5128 1.00682 60.8682C0.362164 60.2235 0 59.3492 0 58.4375C0 57.5258 0.362164 56.6515 1.00682 56.0068C1.65148 55.3622 2.52582 55 3.4375 55H10.3125V41.25H3.4375C2.52582 41.25 1.65148 40.8878 1.00682 40.2432C0.362164 39.5985 0 38.7242 0 37.8125C0 36.9008 0.362164 36.0265 1.00682 35.3818C1.65148 34.7372 2.52582 34.375 3.4375 34.375H10.3125V17.1875C10.3125 15.3641 11.0368 13.6155 12.3261 12.3261C13.6155 11.0368 15.3641 10.3125 17.1875 10.3125H34.375V3.4375C34.375 2.52582 34.7372 1.65148 35.3818 1.00682C36.0265 0.362164 36.9008 0 37.8125 0C38.7242 0 39.5985 0.362164 40.2432 1.00682C40.8878 1.65148 41.25 2.52582 41.25 3.4375V10.3125H55V3.4375C55 2.52582 55.3622 1.65148 56.0068 1.00682C56.6515 0.362164 57.5258 0 58.4375 0C59.3492 0 60.2235 0.362164 60.8682 1.00682C61.5128 1.65148 61.875 2.52582 61.875 3.4375V10.3125H79.0625C80.8859 10.3125 82.6345 11.0368 83.9239 12.3261C85.2132 13.6155 85.9375 15.3641 85.9375 17.1875V34.375H92.8125C93.7242 34.375 94.5985 34.7372 95.2432 35.3818C95.8878 36.0265 96.25 36.9008 96.25 37.8125C96.25 38.7242 95.8878 39.5985 95.2432 40.2432C94.5985 40.8878 93.7242 41.25 92.8125 41.25H85.9375V55H92.8125C93.7242 55 94.5985 55.3622 95.2432 56.0068C95.8878 56.6515 96.25 57.5258 96.25 58.4375ZM65.3125 34.375C65.3125 33.4633 64.9503 32.589 64.3057 31.9443C63.661 31.2997 62.7867 30.9375 61.875 30.9375H34.375C33.4633 30.9375 32.589 31.2997 31.9443 31.9443C31.2997 32.589 30.9375 33.4633 30.9375 34.375V61.875C30.9375 62.7867 31.2997 63.661 31.9443 64.3057C32.589 64.9503 33.4633 65.3125 34.375 65.3125H61.875C62.7867 65.3125 63.661 64.9503 64.3057 64.3057C64.9503 63.661 65.3125 62.7867 65.3125 61.875V34.375Z" fill="url(#paint0_linear_2044_9334)"/>
<defs>
<linearGradient id="paint0_linear_2044_9334" x1="48.125" y1="7.93071e-07" x2="74.8346" y2="125.169" gradientUnits="userSpaceOnUse">
<stop stop-color="#88C6FF"/>
<stop offset="1" stop-color="#217FD7"/>
</linearGradient>
</defs>
</svg>
