<svg width="76" height="104" viewBox="0 0 76 104" fill="none" xmlns="http://www.w3.org/2000/svg">
<path d="M74.7043 50.4882L26.5793 102.051C26.0693 102.595 25.3961 102.959 24.6613 103.087C23.9265 103.215 23.17 103.1 22.5059 102.761C21.8419 102.421 21.3062 101.875 20.9799 101.204C20.6535 100.534 20.5542 99.775 20.6968 99.0429L26.9961 67.534L2.23317 58.2355C1.70136 58.0366 1.2271 57.709 0.852772 57.2821C0.478444 56.8551 0.215706 56.3421 0.0880301 55.7888C-0.0396462 55.2356 -0.0282833 54.6593 0.121103 54.1115C0.270489 53.5637 0.553244 53.0614 0.94411 52.6496L49.0691 1.08708C49.5791 0.542817 50.2523 0.179197 50.9871 0.0510883C51.7218 -0.0770198 52.4783 0.0373349 53.1424 0.376897C53.8065 0.716458 54.3421 1.2628 54.6685 1.93348C54.9948 2.60417 55.0942 3.36279 54.9515 4.09489L48.6351 35.6382L73.398 44.9238C73.9259 45.1241 74.3963 45.4513 74.7678 45.8765C75.1392 46.3018 75.4001 46.812 75.5275 47.362C75.655 47.912 75.645 48.485 75.4984 49.0303C75.3518 49.5755 75.0731 50.0763 74.6871 50.4882H74.7043Z" fill="url(#paint0_linear_2044_9339)"/>
<defs>
<linearGradient id="paint0_linear_2044_9339" x1="37.8081" y1="8.49825e-07" x2="75.4362" y2="129.281" gradientUnits="userSpaceOnUse">
<stop stop-color="#88C6FF"/>
<stop offset="1" stop-color="#217FD7"/>
</linearGradient>
</defs>
</svg>
