<svg width="90" height="90" viewBox="0 0 90 90" fill="none" xmlns="http://www.w3.org/2000/svg">
<path d="M41.2634 59.2712V87.347C41.2651 87.5903 41.215 87.8312 41.1165 88.0538C41.0181 88.2763 40.8735 88.4754 40.6923 88.6379C40.5111 88.8004 40.2975 88.9225 40.0656 88.9963C39.8337 89.07 39.5888 89.0937 39.347 89.0657C31.404 88.0902 23.8673 85.0052 17.5199 80.1314C11.1726 75.2575 6.24641 68.7727 3.25329 61.3509C3.16382 61.1252 3.12315 60.8832 3.13397 60.6408C3.14478 60.3983 3.20683 60.1609 3.31602 59.9441C3.42522 59.7273 3.57908 59.5361 3.76749 59.3831C3.95591 59.2301 4.17459 59.1187 4.40915 59.0563L31.5181 51.7774C31.8652 51.6864 32.232 51.7062 32.5672 51.8341C32.9024 51.962 33.1891 52.1916 33.3873 52.4907C35.0287 54.8652 37.3706 56.6679 40.0861 57.647C40.4277 57.7603 40.7251 57.9781 40.9363 58.2695C41.1475 58.5609 41.262 58.9113 41.2634 59.2712ZM44.7267 9.66893e-05C44.2731 -0.00330528 43.8234 0.083097 43.4033 0.254324C42.9833 0.425551 42.6013 0.678216 42.2794 0.997757C41.9574 1.3173 41.7019 1.69739 41.5276 2.11614C41.3532 2.53489 41.2634 2.984 41.2634 3.4376V27.5001C41.2566 28.4042 41.6089 29.2741 42.2429 29.9186C42.877 30.5632 43.741 30.9296 44.6451 30.9376C47.8916 30.9236 51.0383 32.0587 53.5281 34.1421C56.018 36.2255 57.6904 39.1226 58.2492 42.3207C58.808 45.5187 58.2172 48.8113 56.5814 51.6156C54.9456 54.4199 52.3703 56.5549 49.3115 57.6427C48.97 57.757 48.6731 57.9757 48.4626 58.2679C48.2521 58.5601 48.1387 58.9111 48.1384 59.2712V87.347C48.1369 87.5899 48.1869 87.8304 48.2851 88.0526C48.3833 88.2748 48.5275 88.4737 48.7082 88.6361C48.8889 88.7985 49.1019 88.9208 49.3333 88.9949C49.5647 89.0689 49.8092 89.0931 50.0506 89.0657C61.3749 87.7264 71.7588 82.1085 79.076 73.3625C86.3932 64.6165 90.0901 53.4041 89.4097 42.0211C88.7293 30.6382 83.7231 19.946 75.4161 12.1339C67.1092 4.32182 56.13 -0.0190689 44.7267 9.66893e-05ZM30.9767 43.6091C31.1367 41.5786 31.7458 39.609 32.7599 37.8427V37.8126C33.1005 37.2243 33.2591 36.5482 33.2155 35.8698C33.1719 35.1914 32.9281 34.5411 32.515 34.0013C32.226 33.6299 31.8669 33.3189 31.458 33.086L10.6912 21.0806C10.2999 20.8549 9.868 20.7086 9.42016 20.65C8.97231 20.5914 8.51731 20.6216 8.08115 20.7389C7.64499 20.8563 7.23622 21.0584 6.87822 21.3338C6.52021 21.6091 6.21998 21.9524 5.99469 22.3438C0.9936 31.0053 -0.960964 41.0928 0.443132 50.9954C0.476262 51.2371 0.560463 51.469 0.690136 51.6756C0.819809 51.8822 0.991983 52.0589 1.19521 52.1938C1.39844 52.3288 1.62807 52.4189 1.86883 52.4583C2.10959 52.4976 2.35596 52.4852 2.59157 52.422L29.7564 45.1173C30.0931 45.0242 30.3927 44.8294 30.6143 44.5594C30.8358 44.2893 30.9684 43.9574 30.9939 43.6091H30.9767Z" fill="url(#paint0_linear_2044_9343)"/>
<defs>
<linearGradient id="paint0_linear_2044_9343" x1="44.7447" y1="7.33969e-07" x2="69.3598" y2="115.887" gradientUnits="userSpaceOnUse">
<stop stop-color="#88C6FF"/>
<stop offset="1" stop-color="#217FD7"/>
</linearGradient>
</defs>
</svg>
