<svg width="90" height="97" viewBox="0 0 90 97" fill="none" xmlns="http://www.w3.org/2000/svg">
<path d="M89.375 44.6861V79.0611C89.375 83.6195 87.5642 87.9912 84.3409 91.2145C81.1176 94.4378 76.7459 96.2486 72.1875 96.2486H48.125C47.2133 96.2486 46.339 95.8864 45.6943 95.2418C45.0497 94.5971 44.6875 93.7228 44.6875 92.8111C44.6875 91.8994 45.0497 91.0251 45.6943 90.3804C46.339 89.7357 47.2133 89.3736 48.125 89.3736H72.1875C74.9225 89.3736 77.5456 88.2871 79.4795 86.3531C81.4135 84.4192 82.5 81.7961 82.5 79.0611H72.1875C69.4525 79.0611 66.8294 77.9746 64.8955 76.0406C62.9615 74.1067 61.875 71.4836 61.875 68.7486V51.5611C61.875 48.826 62.9615 46.203 64.8955 44.269C66.8294 42.3351 69.4525 41.2486 72.1875 41.2486H82.3496C81.6991 34.1026 79.0287 27.2893 74.6504 21.6043C70.2721 15.9194 64.3666 11.5976 57.6237 9.14375C50.8808 6.68991 43.5789 6.20531 36.5709 7.74657C29.5629 9.28783 23.138 12.7913 18.0469 17.8478C11.7161 24.0951 7.81138 32.3888 7.02969 41.2486H17.1875C19.9225 41.2486 22.5456 42.3351 24.4795 44.269C26.4135 46.203 27.5 48.826 27.5 51.5611V68.7486C27.5 71.4836 26.4135 74.1067 24.4795 76.0406C22.5456 77.9746 19.9225 79.0611 17.1875 79.0611H10.3125C7.57746 79.0611 4.95443 77.9746 3.02046 76.0406C1.08649 74.1067 0 71.4836 0 68.7486V44.6861C0.00963762 35.8341 2.64526 27.1839 7.57326 19.8305C12.5013 12.4771 19.5001 6.75098 27.6839 3.37699C35.8676 0.00300862 44.8684 -0.867182 53.547 0.876568C62.2256 2.62032 70.1917 6.89961 76.4371 13.1728C80.5605 17.3163 83.8259 22.2327 86.046 27.6403C88.2661 33.048 89.3974 38.8405 89.375 44.6861Z" fill="url(#paint0_linear_2044_9348)"/>
<defs>
<linearGradient id="paint0_linear_2044_9348" x1="44.6877" y1="7.93059e-07" x2="73.2522" y2="124.302" gradientUnits="userSpaceOnUse">
<stop stop-color="#88C6FF"/>
<stop offset="1" stop-color="#217FD7"/>
</linearGradient>
</defs>
</svg>
