<svg width="93" height="90" viewBox="0 0 93 90" fill="none" xmlns="http://www.w3.org/2000/svg">
<path d="M67.7961 89.375H85.9375C87.7609 89.375 89.5096 88.6507 90.7989 87.3614C92.0882 86.072 92.8125 84.3234 92.8125 82.5V66.3223C92.8096 65.7585 92.668 65.2042 92.4004 64.708C92.1327 64.2119 91.7472 63.7892 91.2777 63.4772C90.8081 63.1652 90.2691 62.9734 89.708 62.9188C89.1469 62.8642 88.581 62.9484 88.0602 63.1641C86.842 63.6672 85.5367 63.9256 84.2188 63.9246C78.534 63.9246 73.9063 59.1551 73.9063 53.2984C73.9063 47.4418 78.534 42.6723 84.2188 42.6723C85.5367 42.6712 86.842 42.9297 88.0602 43.4328C88.5837 43.6496 89.1527 43.7335 89.7166 43.6772C90.2804 43.6209 90.8216 43.4261 91.2919 43.1101C91.7623 42.7942 92.1472 42.3668 92.4125 41.8661C92.6778 41.3654 92.8152 40.8069 92.8125 40.2402V24.0625C92.8125 22.2391 92.0882 20.4905 90.7989 19.2011C89.5096 17.9118 87.7609 17.1875 85.9375 17.1875H70.3742C70.4382 16.6168 70.4697 16.043 70.4688 15.4688C70.4688 11.3662 68.839 7.43164 65.9381 4.53069C63.0371 1.62974 59.1026 0 55 0C50.8974 0 46.9629 1.62974 44.0619 4.53069C41.161 7.43164 39.5313 11.3662 39.5313 15.4688C39.5303 16.043 39.5618 16.6168 39.6258 17.1875H24.0625C22.2391 17.1875 20.4905 17.9118 19.2011 19.2011C17.9118 20.4905 17.1875 22.2391 17.1875 24.0625V37.907C16.6168 37.8431 16.043 37.8115 15.4688 37.8125C11.3662 37.8125 7.43165 39.4422 4.53069 42.3432C1.62974 45.2441 0 49.1787 0 53.2812C0 57.3838 1.62974 61.3184 4.53069 64.2193C7.43165 67.1203 11.3662 68.75 15.4688 68.75C16.043 68.751 16.6168 68.7194 17.1875 68.6555V82.5C17.1875 84.3234 17.9118 86.072 19.2011 87.3614C20.4905 88.6507 22.2391 89.375 24.0625 89.375H42.2039" fill="url(#paint0_linear_2044_9352)"/>
<defs>
<linearGradient id="paint0_linear_2044_9352" x1="46.4063" y1="7.36423e-07" x2="70.3654" y2="116.597" gradientUnits="userSpaceOnUse">
<stop stop-color="#88C6FF"/>
<stop offset="1" stop-color="#217FD7"/>
</linearGradient>
</defs>
</svg>
